# xmcd
#
# Track frame offsets:
#	150
#	15564
#	34918
#	52303
#	68155
#	84065
#	103464
#	121444
#	144795
#	160923
#	174451
#
# Disc length: 2572 seconds
#
# Revision: 3
# Processed by: cddbd v1.5.2PL0 Copyright (c) Steve Scherf et al.
# Submitted via: EZCDAudioConverter 8.1.1.1
#
DISCID=900a0a0b
DTITLE=Olivia Newton-John - Back With A Heart
DYEAR=1998
DGENRE=Country
TTITLE0=Precious Love
TTITLE1=Closer To Me
TTITLE2=Fight For Our Love
TTITLE3=Spinning His Wheels
TTITLE4=Under My Skin
TTITLE5=Love Is A Gift
TTITLE6=I Don't Wanna Say Goodnight
TTITLE7=Don't Say That
TTITLE8=Attention
TTITLE9=Back With A Heart
TTITLE10=I Honestly Love You
EXTD=
EXTT0=
EXTT1=
EXTT2=
EXTT3=
EXTT4=
EXTT5=
EXTT6=
EXTT7=
EXTT8=
EXTT9=
EXTT10=
PLAYORDER=
